# xmcd
#
# Track frame offsets: 
#        150
#        15342
#        33605
#        45897
#        62232
#        82637
#        95447
#        119755
#        131842
#        147832
#        162250
#        176595
#        192837
#        204810
#        218527
#
# Disc length: 3085 seconds
#
# Revision: 2
# Processed by: cddbd v1.4PL0 Copyright (c) Steve Scherf et al.
# Submitted via: ExactAudioCopy v0.95a4
#
DISCID=c10c0b0f
DTITLE=John Williamson - Warragul
DYEAR=1989
DGENRE=Folk
TTITLE0=Dingo
TTITLE1=Why They Call Him Sundown
TTITLE2=Station Cook
TTITLE3=Drover's Boy
TTITLE4=Ancient Mountains (With Gondwanaland)
TTITLE5=Charters Towers
TTITLE6=Boogie With M'Baby
TTITLE7=Special Girl
TTITLE8=40 Years Ago
TTITLE9=Amazing Day
TTITLE10=Longreach Is Praying
TTITLE11=Bill The Cat
TTITLE12=Big Bad Bushranger
TTITLE13=Rip Rip Woodchip
TTITLE14=Shelter
EXTD=
EXTT0=
EXTT1=
EXTT2=
EXTT3=
EXTT4=
EXTT5=
EXTT6=
EXTT7=
EXTT8=
EXTT9=
EXTT10=
EXTT11=
EXTT12=
EXTT13=
EXTT14=
PLAYORDER=
